<svg version="1.2" xmlns="http://www.w3.org/2000/svg" viewBox="0 0 2551 1135" width="2551" height="1135">
	<title>LogoByeByeEtiquette</title>
	<defs>
		<radialGradient id="g1" cx="0" cy="0" r="1" gradientUnits="userSpaceOnUse" gradientTransform="matrix(598.262,0,0,598.262,1898.693,349.254)">
			<stop offset="0" stop-color="#fff238"/>
			<stop offset=".25" stop-color="#f3903e"/>
			<stop offset=".5" stop-color="#fdc60a"/>
			<stop offset=".75" stop-color="#f3903e"/>
			<stop offset="1" stop-color="#e0b159"/>
		</radialGradient>
		<radialGradient id="g2" cx="0" cy="0" r="1" gradientUnits="userSpaceOnUse" gradientTransform="matrix(534.19,0,0,534.19,770.027,396.663)">
			<stop offset="0" stop-color="#fff238"/>
			<stop offset=".25" stop-color="#f3903e"/>
			<stop offset=".5" stop-color="#fdc60a"/>
			<stop offset=".75" stop-color="#f3903e"/>
			<stop offset="1" stop-color="#e0b159"/>
		</radialGradient>
		<linearGradient id="g3" x2="1" gradientUnits="userSpaceOnUse" gradientTransform="matrix(142.745,0,0,209.313,1658.16,678.13)">
			<stop offset="0" stop-color="#658bc7"/>
			<stop offset=".25" stop-color="#fefefe"/>
			<stop offset=".5" stop-color="#658bc7"/>
			<stop offset=".75" stop-color="#fefefe"/>
			<stop offset="1" stop-color="#658bc7"/>
		</linearGradient>
		<linearGradient id="g4" x2="1" gradientUnits="userSpaceOnUse" gradientTransform="matrix(102.003,0,0,160.015,1341.074,681.815)">
			<stop offset="0" stop-color="#658bc7"/>
			<stop offset=".25" stop-color="#fefefe"/>
			<stop offset=".5" stop-color="#658bc7"/>
			<stop offset=".75" stop-color="#fefefe"/>
			<stop offset="1" stop-color="#658bc7"/>
		</linearGradient>
		<linearGradient id="g5" x2="1" gradientUnits="userSpaceOnUse" gradientTransform="matrix(126.406,0,0,167.213,1828.382,680.872)">
			<stop offset="0" stop-color="#658bc7"/>
			<stop offset=".25" stop-color="#fefefe"/>
			<stop offset=".5" stop-color="#658bc7"/>
			<stop offset=".75" stop-color="#fefefe"/>
			<stop offset="1" stop-color="#658bc7"/>
		</linearGradient>
		<linearGradient id="g6" x2="1" gradientUnits="userSpaceOnUse" gradientTransform="matrix(96.257,0,0,160.518,2381.149,681.815)">
			<stop offset="0" stop-color="#658bc7"/>
			<stop offset=".25" stop-color="#fefefe"/>
			<stop offset=".5" stop-color="#658bc7"/>
			<stop offset=".75" stop-color="#fefefe"/>
			<stop offset="1" stop-color="#658bc7"/>
		</linearGradient>
		<linearGradient id="g7" x2="1" gradientUnits="userSpaceOnUse" gradientTransform="matrix(99.836,0,0,160.527,1988.394,681.303)">
			<stop offset="0" stop-color="#658bc7"/>
			<stop offset=".25" stop-color="#fefefe"/>
			<stop offset=".5" stop-color="#658bc7"/>
			<stop offset=".75" stop-color="#fefefe"/>
			<stop offset="1" stop-color="#658bc7"/>
		</linearGradient>
		<linearGradient id="g8" x2="1" gradientUnits="userSpaceOnUse" gradientTransform="matrix(116.455,0,0,161.104,2104.725,681.815)">
			<stop offset="0" stop-color="#658bc7"/>
			<stop offset=".25" stop-color="#fefefe"/>
			<stop offset=".5" stop-color="#658bc7"/>
			<stop offset=".75" stop-color="#fefefe"/>
			<stop offset="1" stop-color="#658bc7"/>
		</linearGradient>
		<linearGradient id="g9" x2="1" gradientUnits="userSpaceOnUse" gradientTransform="matrix(116.455,0,0,161.104,2235.643,681.815)">
			<stop offset="0" stop-color="#658bc7"/>
			<stop offset=".25" stop-color="#fefefe"/>
			<stop offset=".5" stop-color="#658bc7"/>
			<stop offset=".75" stop-color="#fefefe"/>
			<stop offset="1" stop-color="#658bc7"/>
		</linearGradient>
		<linearGradient id="g10" x2="1" gradientUnits="userSpaceOnUse" gradientTransform="matrix(123.728,0,0,160.015,1457.406,681.815)">
			<stop offset="0" stop-color="#658bc7"/>
			<stop offset=".25" stop-color="#fefefe"/>
			<stop offset=".5" stop-color="#658bc7"/>
			<stop offset=".75" stop-color="#fefefe"/>
			<stop offset="1" stop-color="#658bc7"/>
		</linearGradient>
		<linearGradient id="g11" x2="1" gradientUnits="userSpaceOnUse" gradientTransform="matrix(21.817,0,0,160.015,1602.915,681.813)">
			<stop offset="0" stop-color="#658bc7"/>
			<stop offset=".25" stop-color="#fefefe"/>
			<stop offset=".5" stop-color="#658bc7"/>
			<stop offset=".75" stop-color="#fefefe"/>
			<stop offset="1" stop-color="#658bc7"/>
		</linearGradient>
		<radialGradient id="g12" cx="0" cy="0" r="1" gradientUnits="userSpaceOnUse" gradientTransform="matrix(202.89,0,0,202.89,389.896,475.683)">
			<stop offset="0" stop-color="#fff238"/>
			<stop offset=".25" stop-color="#f3903e"/>
			<stop offset=".5" stop-color="#fdc60a"/>
			<stop offset=".75" stop-color="#f3903e"/>
		</radialGradient>
		<radialGradient id="g13" cx="0" cy="0" r="1" gradientUnits="userSpaceOnUse" gradientTransform="matrix(208.469,0,0,208.469,384.377,300.444)">
			<stop offset="0" stop-color="#fff238"/>
			<stop offset=".25" stop-color="#f3903e"/>
			<stop offset=".5" stop-color="#fdc60a"/>
			<stop offset=".75" stop-color="#f3903e"/>
			<stop offset="1" stop-color="#e0b159"/>
		</radialGradient>
		<linearGradient id="g14" x2="1" gradientUnits="userSpaceOnUse" gradientTransform="matrix(890.144,0,0,359.328,260.673,734.799)">
			<stop offset="0" stop-color="#921a1d"/>
			<stop offset=".25" stop-color="#9f3a25"/>
			<stop offset=".5" stop-color="#921a1d"/>
			<stop offset=".75" stop-color="#9f3a25"/>
			<stop offset="1" stop-color="#921a1d"/>
		</linearGradient>
		<linearGradient id="g15" x2="1" gradientUnits="userSpaceOnUse" gradientTransform="matrix(174.116,0,0,118.319,71.024,700.19)">
			<stop offset="0" stop-color="#61cbe9"/>
			<stop offset=".25" stop-color="#fefefe"/>
			<stop offset=".5" stop-color="#61cbe9"/>
			<stop offset=".75" stop-color="#fefefe"/>
			<stop offset="1" stop-color="#61cbe9"/>
		</linearGradient>
		<linearGradient id="g16" x2="1" gradientUnits="userSpaceOnUse" gradientTransform="matrix(101.24,0,0,70.514,171.801,854.301)">
			<stop offset="0" stop-color="#61cbe9"/>
			<stop offset=".25" stop-color="#fefefe"/>
			<stop offset=".5" stop-color="#61cbe9"/>
			<stop offset=".75" stop-color="#fefefe"/>
			<stop offset="1" stop-color="#61cbe9"/>
		</linearGradient>
	</defs>
	<style>
		.s0 { fill: #1f4499 } 
		.s1 { fill: url(#g1);stroke: #fefefe;stroke-miterlimit:10;stroke-width: 8 } 
		.s2 { fill: url(#g2);stroke: #fefefe;stroke-miterlimit:10;stroke-width: 8 } 
		.s3 { fill: #fefefe;stroke: url(#g3);stroke-miterlimit:10;stroke-width: 8 } 
		.s4 { fill: #fefefe;stroke: url(#g4);stroke-miterlimit:10;stroke-width: 8 } 
		.s5 { fill: #fefefe;stroke: url(#g5);stroke-miterlimit:10;stroke-width: 8 } 
		.s6 { fill: #fefefe;stroke: url(#g6);stroke-miterlimit:10;stroke-width: 8 } 
		.s7 { fill: #fefefe;stroke: url(#g7);stroke-miterlimit:10;stroke-width: 8 } 
		.s8 { fill: #fefefe;stroke: url(#g8);stroke-miterlimit:10;stroke-width: 8 } 
		.s9 { fill: #fefefe;stroke: url(#g9);stroke-miterlimit:10;stroke-width: 8 } 
		.s10 { fill: #fefefe;stroke: url(#g10);stroke-miterlimit:10;stroke-width: 8 } 
		.s11 { fill: #fefefe;stroke: url(#g11);stroke-miterlimit:10;stroke-width: 8 } 
		.s12 { fill: #f7931d;stroke: #fefefe;stroke-miterlimit:10;stroke-width: 8 } 
		.s13 { fill: #fefefe } 
		.s14 { fill: url(#g12);stroke: #fefefe;stroke-miterlimit:10;stroke-width: 8 } 
		.s15 { fill: url(#g13);stroke: #fefefe;stroke-miterlimit:10;stroke-width: 8 } 
		.s16 { fill: url(#g14);stroke: #fefefe;stroke-miterlimit:10;stroke-width: 5 } 
		.s17 { fill: url(#g15);stroke: #fefefe;stroke-miterlimit:10;stroke-width: 5 } 
		.s18 { fill: url(#g16);stroke: #fefefe;stroke-miterlimit:10;stroke-width: 5 } 
	</style>
	<g id="Layer 1">
		<path id="&lt;Path&gt;" class="s0" d="m2551.18 1135h-2551.18v-1134.92h2551.18z"/>
		<g id="&lt;Group&gt;">
			<path id="&lt;Compound Path&gt;" fill-rule="evenodd" class="s1" d="m1391.05 207.07c7.98-47.25 18.92-94.29 23.69-142.14h1062.66v568.57c-122.9 0.07-245.98-0.12-368.89 0-262.79 0.23-525.75-0.15-788.53-0.03 27.1-141.47 47.09-284.38 71.07-426.4zm487.33 160.75v196.3c0 1.44 5.31 5.69 8.13 4.92l106.96-6.6c0.17-64.67-6.56-128.96-2.69-193.9l120.95-173.37-89.25-69.25-86.62 121.74-8.22-3.54-73.22-111.32c-13.54 6.12-99.3 60.46-101.05 66.25-0.86 2.88-0.31 5.58 1.42 8zm-186.11-35.55c-0.58-10.71 12.53-13.24 18.73-20.16 30.96-34.56 38.17-67.41 13.89-108.92-51.08-87.34-176.62-75.32-259.04-46.55l-3.29 405.33c90.71 22.37 265.28 34 305.8-74.04 25.43-67.83 0.79-143.57-76.09-155.66zm724.22-196.27h-291.05l16.91 433.21 291.07-13.56v-103.22c0-1.69-5.59-5.57-8.43-5.19l-174.35 10.28-3-60.58 145.17-13.88 3.39-91.4-153.75-6.55c-4.26-0.7-6.38-38.06-5.35-44.21l165.84 6.8z"/>
			<path id="&lt;Compound Path&gt;" fill-rule="evenodd" class="s2" d="m534.82 680.88c-117.26-0.12-234.7 0.08-351.96 0v-568.57h1174.34c-5.86 31.25-8.42 63.44-13.53 94.76-25.78 157.85-55.59 315.52-81.7 473.35-242.3 0.66-484.83 0.69-727.15 0.46zm-200.93-507.21c-18.11 1.42-91.87 14.71-100.51 28.09l1.67 415.08c99.48 28.53 292.91 34.97 322.45-94.34 14.3-62.58-4.74-126.04-70.05-146.26-2.74-3.56 28.05-36.65 31.82-44.28 12.53-25.4 7.49-52.96-4.76-77.51 0.27 0.37 5.26-0.09 8.27 3.44 43.2 50.61 80.1 109.98 123.72 160.7v203.06c0 2.44 4.09 3.68 6.91 3.68 41.2 0.11 83.76-6.71 124.9-8.93-3.66-66.64-4.4-133.51-2.38-200.37l115.93-164.99 18.65 375.67 304.55-13.53v-128.59l-179.58 8.67c-6.68-4.67-1.66-33.31-3.18-42.54l144.06-13.3 4.88-105.15-150.63-6.74c-12.8-1.58-7.76-17-8.47-27.1l162.69 1.93 20.08-123.75h-314.74l1.71 57.52-94.65-74.44c-12.92 12.56-82.79 120.71-91.45 118.45-6.57-1.72-63.8-100.68-77.88-111.36l-108.43 74.05c-3.38 1.87-6.28 10.02-5.24 13.06-32.96-65.31-112.37-85.55-180.34-80.22z"/>
			<path id="&lt;Compound Path&gt;" fill-rule="evenodd" class="s3" d="m1748.43 841.97c-15.27 18.07 41.97 24.74 50.92 21.71 9.99 33.12-30.47 25.51-53.7 13.6-3.7-1.9-63.17-47.34-66.01-50.36-38.65-41.14-26.24-143.86 45.95-148.63 64.25-4.25 88.89 77.67 64.75 129.13-11.9 25.36-36.98 28.73-41.91 34.55zm-18.27-142.31c-68.41 0.26-59.81 128.2 0.02 128.36 54.04 0.13 61.11-128.6-0.02-128.36z"/>
			<path id="&lt;Path&gt;" class="s4" d="m1442.9 681.81c4.21 37.55-66.49 15.38-72.77 21.79v43.71h58.27v21.75l-58.36 4.21 0.09 46.77c6.38 6.43 76.94-15.79 72.77 21.79h-101.83v-160.02z"/>
			<path id="&lt;Path&gt;" class="s5" d="m1828.38 681.81l21.79-0.04c3.47 38.93-15.53 149.02 45.81 144.09 10.87-0.87 26.95-13.89 26.95-24.03v-120.02c0-1.45 28.02-1.03 29.06-0.03 8.64 8.24-4.22 125.43-18.27 145.39-30.32 43.08-105.34 12.19-105.34-25.34z"/>
			<path id="&lt;Path&gt;" class="s6" d="m2381.15 681.81l94.59 0.04v21.75h-72.81v43.71h58.27v21.75l-58.27-0.01-0.09 46.78c1.68 11.41 71.04-2.76 72.9 7.86 2.47 14 4.31 17.41-10.73 18.19-27.8 1.45-56.11-1.14-83.86-0.05z"/>
			<path id="&lt;Path&gt;" class="s7" d="m1988.39 681.81c27.76 1.09 56.07-1.5 83.87-0.06 15.03 0.78 13.2 4.21 10.73 18.21-1.87 10.61-71.25-3.57-72.91 7.86l0.1 39.49c11.06 2.1 56.8-4.7 58.26 3.64 5.92 33.67-38.29 12.91-58.26 18.1v58.27c2.83 2.83 101.75-7.58 72.72 14.47l-94.51 0.04z"/>
			<path id="&lt;Path&gt;" class="s8" d="m2221.14 681.81l0.04 21.79c-2.36 2.45-43.68-2.15-43.68 0.03v138.2c0 1.45-29.1 1.45-29.1 0v-138.2c0-2.18-41.32 2.42-43.68-0.03l0.05-21.79z"/>
			<path id="&lt;Path&gt;" class="s9" d="m2352.06 681.81l0.04 21.79c-2.36 2.45-43.68-2.15-43.68 0.03v138.2c0 1.45-29.1 1.45-29.1 0v-138.2c0-2.18-41.32 2.42-43.68-0.03l0.04-21.79z"/>
			<path id="&lt;Path&gt;" class="s10" d="m1581.09 681.81l0.04 21.79c-2.58 2.71-50.96-2.51-50.96 0.03v138.2h-21.81v-138.2c0-2.54-48.37 2.68-50.95-0.03l0.04-21.79z"/>
			<path id="&lt;Path&gt;" class="s11" d="m1624.73 841.83h-21.82v-160.02h21.82z"/>
			<path id="&lt;Path&gt;" class="s12" d="m1570.41 467.66v-72.76c0-4.64 21.52-10.32 26.26-10.95 45.25-6.07 80.93 29.33 51.09 71.38-15.97 22.5-53.85 17.11-77.35 12.33z"/>
			<path id="&lt;Path&gt;" class="s12" d="m1570.76 217.56c31.88-8.46 70.72-15.09 74.27 28.26 4.11 50.01-33.97 53.27-73.15 42.7z"/>
			<path id="&lt;Path&gt;" class="s13" d="m1184.6 193.54l-13.71 91.18-165.65-6.57v55.84c0 12.15 52.92 7.74 62.75 8.32 31.97 1.89 64.3 5.48 96.31 6.92-4.61 24.56-3.42 49.51-3.37 74.45l-147.48 13.3c0.59 25.33 1.6 52.33 5.47 77.9l179.23-9.99v91.37l-270.72 10.13-16.96-412.85z"/>
			<path id="&lt;Path&gt;" class="s13" d="m663.42 606.42v-194.6l-125.22-164.08 87.93-57.59c8.65 13.7 75.87 120.03 82.91 118.43 7.51-1.71 79.57-109.89 89.8-125.19l77.66 62.61-117.49 163.26c-6.53 27.12 6.47 178-2.3 190.6-3.35 4.8-79.92 4.62-93.29 6.56z"/>
			<path id="&lt;Compound Path&gt;" fill-rule="evenodd" class="s13" d="m247.59 602.58l3.42-391.64c48.25-15.81 101.98-27.05 152.66-16.54 66.62 13.79 136.63 86.41 82.12 151.47-5.03 5.99-27.67 23.31-27.96 25.17-2.46 15.52 28.5 20.9 39.88 27.13 50.2 27.48 57.6 88.59 36.62 138.37-40.28 95.52-203.55 87.24-286.74 66.04zm94.92-257.32c48.03 10.37 93.76 4.84 87.39-55.29-3.88-36.53-30.16-41.94-62.23-38.54-4.83 0.52-22.32 4.6-24.98 7.18-6.84 6.64-5.89 82.96-0.18 86.65zm82.83 168.59c24.73-23.19 21.93-71.35-12.37-85.09-14.91-5.97-63.99-9.6-72.81 5-4.09 6.77-3.36 83.25 3.13 88.37 16.51 12.99 65.67 7.08 82.05-8.28z"/>
			<path id="&lt;Path&gt;" class="s14" d="m355.45 508.27v-64.29c94.75-26.97 88.93 88.06 0 64.29z"/>
			<path id="&lt;Path&gt;" class="s15" d="m355.45 271.37c27.67-6.72 58.94-7.97 57.83 28.79-1.28 42.21-57.83 34.85-57.83 27.05z"/>
			<path id="&lt;Compound Path&gt;" fill-rule="evenodd" class="s16" d="m1150.82 734.82c-144.14 169.98-382.56 234.48-595.35 166.37-28.7-9.18-56.11-22.2-83.61-33.35-27.12 21.7-44.82 57.45-52.87 91.19-9.22 38.64-5.4 87.25-36.33 116.93-49.03 47.04-117.31-5.41-121.61-63.54-6.13-82.74 60.9-164.21 136.5-190.74l-46.75-39.2c-12.41-14.22-29.08-26.84-41.09-41.13-1.76-2.11-4.54-3.05-3.71-6.55 98.16 71.43 210.9 118.76 331.98 134.34 155.47 20.01 313.36-13.13 448.03-91.68zm-800.01 228.01c8.8-48.79 37.85-93.3 82.22-116.82-5.14-4.43-14.78-13.45-21.77-10.76-13.13 5.04-35.45 32.79-42.71 45.31-9.51 16.42-23.59 57.48-21.53 75.8 0.32 2.79 0.4 5.77 3.79 6.47z"/>
			<path id="&lt;Compound Path&gt;" fill-rule="evenodd" class="s17" d="m245.14 813.88l-19.65 4.09c-44.09 2.68-129.72-3.12-150.29-50.27-17.95-41.16 25.14-82.43 66.36-62.21 23.34 11.45 23.12 36.85 36.52 56.53 14.97 22 42.65 41.87 67.06 51.86zm-126.61-82.26c-4.83-4.81-18.43-4.25-20.16 4.77-3.44 18 21.09 24.23 35.11 25.76-0.26-5.76-5.95-7.97-8.68-13.01-2.37-4.37-3.83-15.07-6.27-17.52z"/>
			<path id="&lt;Compound Path&gt;" fill-rule="evenodd" class="s18" d="m272.89 877.08c-6.56 1.32-14.56 7.83-19.61 12.45-14.08 12.86-19.57 32.3-41.58 34.97-51.03 6.2-56.11-73.44 2.23-70.1 13.61 0.78 42.84 8.67 54.23 16.07 2.76 1.79 5.57 2.44 4.73 6.61zm-70.31-8.24c-19.08-2.02-30.43 29.96-7.35 26.93 11.35-1.5 6.45-18.94 7.35-26.93z"/>
		</g>
	</g>
</svg>